<svg width="150" height="62" viewBox="0 0 150 62" fill="none" xmlns="http://www.w3.org/2000/svg">
<rect width="149.513" height="61.5641" rx="17.5897" fill="#023C63"/>
<path d="M51.4864 38.3487V24.8046H57.349C58.5615 24.8046 59.6064 25.0045 60.4835 25.4044C61.3606 25.7914 62.0379 26.3525 62.5151 27.0878C62.9924 27.823 63.231 28.7002 63.231 29.7192C63.231 30.7253 62.9924 31.596 62.5151 32.3313C62.0379 33.0665 61.3606 33.6341 60.4835 34.034C59.6064 34.4209 58.5615 34.6144 57.349 34.6144H53.2277L54.6208 33.202V38.3487H51.4864ZM54.6208 33.5502L53.2277 32.0604H57.1749C58.1423 32.0604 58.8647 31.854 59.3419 31.4412C59.8192 31.0285 60.0578 30.4544 60.0578 29.7192C60.0578 28.971 59.8192 28.3906 59.3419 27.9778C58.8647 27.565 58.1423 27.3586 57.1749 27.3586H53.2277L54.6208 25.8688V33.5502ZM64.4631 38.3487V27.9391H67.3461V30.8801L66.9398 30.0288C67.2494 29.2935 67.746 28.7389 68.4296 28.3648C69.1133 27.9778 69.9453 27.7843 70.9256 27.7843V30.5705C70.7966 30.5576 70.6805 30.5512 70.5773 30.5512C70.4741 30.5383 70.3645 30.5318 70.2484 30.5318C69.4229 30.5318 68.7521 30.7705 68.2361 31.2477C67.7331 31.7121 67.4815 32.4409 67.4815 33.4341V38.3487H64.4631ZM76.8241 38.5035C75.7148 38.5035 74.728 38.2713 73.8638 37.807C73.0124 37.3426 72.3352 36.7105 71.8321 35.9108C71.342 35.0981 71.0969 34.1758 71.0969 33.1439C71.0969 32.0991 71.342 31.1768 71.8321 30.377C72.3352 29.5644 73.0124 28.9323 73.8638 28.4809C74.728 28.0165 75.7148 27.7843 76.8241 27.7843C77.9205 27.7843 78.9009 28.0165 79.7651 28.4809C80.6294 28.9323 81.3066 29.5579 81.7967 30.3577C82.2869 31.1574 82.532 32.0862 82.532 33.1439C82.532 34.1758 82.2869 35.0981 81.7967 35.9108C81.3066 36.7105 80.6294 37.3426 79.7651 37.807C78.9009 38.2713 77.9205 38.5035 76.8241 38.5035ZM76.8241 36.0269C77.3272 36.0269 77.7786 35.9108 78.1785 35.6786C78.5784 35.4464 78.8944 35.1175 79.1266 34.6918C79.3588 34.2532 79.4749 33.7373 79.4749 33.1439C79.4749 32.5377 79.3588 32.0217 79.1266 31.596C78.8944 31.1703 78.5784 30.8414 78.1785 30.6092C77.7786 30.377 77.3272 30.261 76.8241 30.261C76.321 30.261 75.8696 30.377 75.4697 30.6092C75.0698 30.8414 74.7473 31.1703 74.5023 31.596C74.2701 32.0217 74.154 32.5377 74.154 33.1439C74.154 33.7373 74.2701 34.2532 74.5023 34.6918C74.7473 35.1175 75.0698 35.4464 75.4697 35.6786C75.8696 35.9108 76.321 36.0269 76.8241 36.0269ZM89.9285 38.5035C89.0513 38.5035 88.2838 38.31 87.626 37.923C86.9681 37.5361 86.4522 36.9492 86.0781 36.1623C85.7169 35.3626 85.5363 34.3564 85.5363 33.1439C85.5363 31.9185 85.7105 30.9124 86.0587 30.1255C86.407 29.3387 86.9101 28.7518 87.5679 28.3648C88.2258 27.9778 89.0126 27.7843 89.9285 27.7843C90.9088 27.7843 91.786 28.0101 92.5599 28.4615C93.3468 28.9001 93.9659 29.5193 94.4174 30.319C94.8817 31.1187 95.1139 32.0604 95.1139 33.1439C95.1139 34.2403 94.8817 35.1884 94.4174 35.9882C93.9659 36.7879 93.3468 37.4071 92.5599 37.8457C91.786 38.2842 90.9088 38.5035 89.9285 38.5035ZM83.7756 42.1024V27.9391H86.6585V30.0675L86.6005 33.1633L86.794 36.2397V42.1024H83.7756ZM89.4061 36.0269C89.9091 36.0269 90.3541 35.9108 90.7411 35.6786C91.141 35.4464 91.457 35.1175 91.6892 34.6918C91.9343 34.2532 92.0568 33.7373 92.0568 33.1439C92.0568 32.5377 91.9343 32.0217 91.6892 31.596C91.457 31.1703 91.141 30.8414 90.7411 30.6092C90.3541 30.377 89.9091 30.261 89.4061 30.261C88.903 30.261 88.4515 30.377 88.0517 30.6092C87.6518 30.8414 87.3357 31.1703 87.1036 31.596C86.8714 32.0217 86.7553 32.5377 86.7553 33.1439C86.7553 33.7373 86.8714 34.2532 87.1036 34.6918C87.3357 35.1175 87.6518 35.4464 88.0517 35.6786C88.4515 35.9108 88.903 36.0269 89.4061 36.0269ZM101.527 38.5035C100.34 38.5035 99.2951 38.2713 98.3922 37.807C97.5021 37.3426 96.812 36.7105 96.3219 35.9108C95.8317 35.0981 95.5866 34.1758 95.5866 33.1439C95.5866 32.0991 95.8253 31.1768 96.3025 30.377C96.7927 29.5644 97.457 28.9323 98.2954 28.4809C99.1339 28.0165 100.082 27.7843 101.14 27.7843C102.159 27.7843 103.075 28.0036 103.887 28.4422C104.713 28.8678 105.364 29.487 105.841 30.2996C106.319 31.0994 106.557 32.0604 106.557 33.1826C106.557 33.2987 106.551 33.4341 106.538 33.5889C106.525 33.7308 106.512 33.8663 106.499 33.9953H98.0439V32.2345H104.913L103.752 32.7569C103.752 32.2152 103.642 31.7444 103.423 31.3445C103.204 30.9446 102.9 30.635 102.513 30.4157C102.126 30.1836 101.675 30.0675 101.159 30.0675C100.643 30.0675 100.185 30.1836 99.7853 30.4157C99.3983 30.635 99.0952 30.9511 98.8759 31.3638C98.6566 31.7637 98.547 32.241 98.547 32.7956V33.26C98.547 33.8276 98.6695 34.3306 98.9146 34.7692C99.1726 35.1949 99.5273 35.5238 99.9788 35.756C100.443 35.9753 100.985 36.0849 101.604 36.0849C102.159 36.0849 102.642 36.0011 103.055 35.8334C103.481 35.6657 103.868 35.4142 104.216 35.0788L105.822 36.8202C105.345 37.3619 104.745 37.7812 104.023 38.0778C103.3 38.3616 102.468 38.5035 101.527 38.5035ZM107.793 38.3487V27.9391H110.676V30.8801L110.27 30.0288C110.579 29.2935 111.076 28.7389 111.759 28.3648C112.443 27.9778 113.275 27.7843 114.255 27.7843V30.5705C114.126 30.5576 114.01 30.5512 113.907 30.5512C113.804 30.5383 113.694 30.5318 113.578 30.5318C112.753 30.5318 112.082 30.7705 111.566 31.2477C111.063 31.7121 110.811 32.4409 110.811 33.4341V38.3487H107.793ZM119.892 38.5035C118.667 38.5035 117.712 38.1939 117.028 37.5748C116.345 36.9427 116.003 36.0075 116.003 34.7692V25.6366H119.021V34.7305C119.021 35.1691 119.137 35.5109 119.37 35.756C119.602 35.9882 119.918 36.1043 120.318 36.1043C120.795 36.1043 121.201 35.9753 121.537 35.7173L122.349 37.8457C122.04 38.0649 121.666 38.2326 121.227 38.3487C120.801 38.4519 120.356 38.5035 119.892 38.5035ZM114.397 30.4931V28.1713H121.614V30.4931H114.397ZM124.396 42.2572C123.855 42.2572 123.319 42.1733 122.79 42.0056C122.262 41.8379 121.829 41.6058 121.494 41.3091L122.597 39.1614C122.829 39.3677 123.094 39.529 123.39 39.6451C123.7 39.7612 124.003 39.8192 124.3 39.8192C124.725 39.8192 125.061 39.716 125.306 39.5096C125.564 39.3162 125.796 38.9872 126.002 38.5229L126.544 37.2458L126.776 36.9169L130.511 27.9391H133.413L128.711 38.9872C128.376 39.8257 127.989 40.4835 127.55 40.9608C127.125 41.4381 126.647 41.7734 126.118 41.9669C125.602 42.1604 125.028 42.2572 124.396 42.2572ZM126.176 38.755L121.533 27.9391H124.648L128.247 36.646L126.176 38.755Z" fill="white"/>
<path d="M26.3848 22.8666V40.4564" stroke="white" stroke-width="4.39744" stroke-linecap="round"/>
<path d="M35.1796 31.6615H17.5898" stroke="white" stroke-width="4.39744" stroke-linecap="round"/>
</svg>
