<svg width="18" height="18" viewBox="0 0 18 18" fill="none" xmlns="http://www.w3.org/2000/svg">
<path d="M2.29724 12.8107V9.55492C2.29724 9.34076 2.35898 9.11261 2.48246 8.87048C2.60594 8.62835 2.78537 8.4465 3.02075 8.32495V6.66088C3.02075 6.25283 3.1599 5.90964 3.43821 5.63133C3.71652 5.35302 4.05971 5.21387 4.46777 5.21387H7.72356C7.97292 5.21387 8.18588 5.26524 8.36241 5.36797C8.53847 5.47023 8.68727 5.6118 8.80882 5.79267C8.93037 5.6118 9.07917 5.47023 9.25522 5.36797C9.43176 5.26524 9.64471 5.21387 9.89408 5.21387H13.1499C13.5579 5.21387 13.9011 5.35302 14.1794 5.63133C14.4577 5.90964 14.5969 6.25283 14.5969 6.66088V8.32495C14.8323 8.4465 15.0117 8.62835 15.1352 8.87048C15.2587 9.11261 15.3204 9.34076 15.3204 9.55492V12.8107C15.3204 12.9134 15.2857 12.9993 15.2162 13.0683C15.1468 13.1377 15.0607 13.1725 14.9579 13.1725C14.8557 13.1725 14.7698 13.1377 14.7003 13.0683C14.6314 12.9993 14.5969 12.9134 14.5969 12.8107V11.7254H3.02075V12.8107C3.02075 12.9134 2.98602 12.9993 2.91656 13.0683C2.84711 13.1373 2.76125 13.172 2.659 13.1725C2.55674 13.1725 2.47088 13.1377 2.40143 13.0683C2.33197 12.9993 2.29724 12.9134 2.29724 12.8107ZM9.17057 8.1079H13.8734V6.66088C13.8734 6.45589 13.8039 6.28418 13.665 6.14575C13.5261 6.00732 13.3544 5.93786 13.1499 5.93738H9.89408C9.68909 5.93738 9.51737 6.00683 9.37894 6.14575C9.24051 6.28466 9.17106 6.45637 9.17057 6.66088V8.1079ZM3.74426 8.1079H8.44706V6.66088C8.44706 6.45589 8.37761 6.28418 8.23869 6.14575C8.09978 6.00732 7.92807 5.93786 7.72356 5.93738H4.46777C4.26277 5.93738 4.09106 6.00683 3.95263 6.14575C3.8142 6.28466 3.74474 6.45637 3.74426 6.66088V8.1079ZM3.02075 11.0019H14.5969V9.55492C14.5969 9.34992 14.5274 9.17821 14.3885 9.03978C14.2496 8.90135 14.0779 8.83189 13.8734 8.83141H3.74426C3.53926 8.83141 3.36755 8.90087 3.22912 9.03978C3.09069 9.17869 3.02123 9.35041 3.02075 9.55492V11.0019Z" fill="#FEFEFE"/>
</svg>
