<svg width="36" height="36" viewBox="0 0 36 36" fill="none" xmlns="http://www.w3.org/2000/svg">
<path d="M4.5 27V19.5C4.5 19.056 4.628 18.583 4.884 18.081C5.14 17.579 5.512 17.202 6 16.95V13.5C6 12.654 6.2885 11.9425 6.8655 11.3655C7.4425 10.7885 8.154 10.5 9 10.5H15.75C16.267 10.5 16.7085 10.6065 17.0745 10.8195C17.4395 11.0315 17.748 11.325 18 11.7C18.252 11.325 18.5605 11.0315 18.9255 10.8195C19.2915 10.6065 19.733 10.5 20.25 10.5H27C27.846 10.5 28.5575 10.7885 29.1345 11.3655C29.7115 11.9425 30 12.654 30 13.5V16.95C30.488 17.202 30.86 17.579 31.116 18.081C31.372 18.583 31.5 19.056 31.5 19.5V27H30V24H6V27H4.5ZM18.75 16.5H28.5V13.5C28.5 13.075 28.356 12.719 28.068 12.432C27.78 12.145 27.424 12.001 27 12H20.25C19.825 12 19.469 12.144 19.182 12.432C18.895 12.72 18.751 13.076 18.75 13.5V16.5ZM7.5 16.5H17.25V13.5C17.25 13.075 17.106 12.719 16.818 12.432C16.53 12.145 16.174 12.001 15.75 12H9C8.575 12 8.219 12.144 7.932 12.432C7.645 12.72 7.501 13.076 7.5 13.5V16.5ZM6 22.5H30V19.5C30 19.075 29.856 18.719 29.568 18.432C29.28 18.145 28.924 18.001 28.5 18H7.5C7.075 18 6.719 18.144 6.432 18.432C6.145 18.72 6.001 19.076 6 19.5V22.5Z" fill="#2A2A33"/>
</svg>
