<svg width="37" height="36" viewBox="0 0 37 36" fill="none" xmlns="http://www.w3.org/2000/svg">
<path d="M33.125 19.6875H6.125V7.03125C6.1237 6.55462 6.21694 6.08247 6.39934 5.64213C6.58175 5.20178 6.84968 4.80199 7.18763 4.4659L7.21576 4.43777C7.7454 3.90891 8.4254 3.55646 9.16286 3.42858C9.90032 3.30069 10.6593 3.40361 11.3361 3.72326C10.6969 4.78595 10.4312 6.03178 10.5813 7.26277C10.7313 8.49376 11.2885 9.6393 12.1642 10.5173L12.9342 11.2873L11.5169 12.7047L13.1078 14.2956L14.5251 12.8783L22.3782 5.0253L23.7955 3.60801L22.2046 2.01705L20.7872 3.43434L20.0172 2.66435C19.0953 1.74504 17.8801 1.17834 16.5833 1.06301C15.2865 0.947677 13.9903 1.29103 12.9206 2.03323C11.7927 1.3209 10.456 1.01338 9.13019 1.16119C7.80437 1.309 6.56824 1.90335 5.62487 2.8466L5.59674 2.87473C5.04918 3.41929 4.61506 4.06706 4.31953 4.78053C4.02399 5.49399 3.8729 6.259 3.875 7.03125V19.6875H1.625V21.9375H3.875V24.0961C3.87495 24.2775 3.9042 24.4576 3.96162 24.6297L6.05469 30.9086C6.16639 31.2448 6.38117 31.5372 6.66852 31.7443C6.95587 31.9515 7.30119 32.0628 7.65542 32.0625H8.56245L7.74219 34.875H10.0859L10.9062 32.0625H25.5383L26.382 34.875H28.7305L27.8867 32.0625H29.3443C29.6986 32.0628 30.044 31.9515 30.3314 31.7444C30.6188 31.5373 30.8336 31.2448 30.9453 30.9086L33.0382 24.6297C33.0957 24.4576 33.125 24.2775 33.125 24.0961V21.9375H35.375V19.6875H33.125ZM13.7553 4.25531C14.3752 3.63679 15.2151 3.28942 16.0908 3.28942C16.9665 3.28942 17.8064 3.63679 18.4262 4.25531L19.1961 5.0253L14.5253 9.69609L13.7553 8.92624C13.1368 8.30635 12.7895 7.46644 12.7895 6.59078C12.7895 5.71511 13.1368 4.8752 13.7553 4.25531ZM30.875 24.0047L28.9392 29.8125H8.06084L6.125 24.0047V21.9375H30.875V24.0047Z" fill="#2A2A33"/>
</svg>
