<svg width="24" height="25" viewBox="0 0 24 25" fill="none" xmlns="http://www.w3.org/2000/svg">
<path d="M22.5272 13.2943V16.8751C22.5272 18.1413 22.0242 19.3557 21.1288 20.251C20.2335 21.1464 19.0191 21.6494 17.7529 21.6494H5.81696C4.55072 21.6494 3.33635 21.1464 2.44098 20.251C1.54561 19.3557 1.0426 18.1413 1.0426 16.8751V14.0105C1.0426 13.8205 1.11805 13.6384 1.25236 13.5041C1.38666 13.3697 1.56882 13.2943 1.75876 13.2943H22.5272ZM22.5272 13.2943V6.13276C22.5272 4.86652 22.0242 3.65214 21.1288 2.75678C20.2335 1.86141 19.0191 1.3584 17.7529 1.3584H11.7849M16.5593 21.6494L17.7529 24.0366M7.01055 21.6494L5.81696 24.0366" stroke="#FEFEFE" stroke-width="1.79038" stroke-linecap="round" stroke-linejoin="round"/>
<path d="M15.8429 7.32635H7.72653C7.33145 7.32635 7.01515 7.00646 7.05812 6.61258C7.23238 5.02869 8.04044 1.3584 11.7847 1.3584C15.529 1.3584 16.3371 5.02869 16.5113 6.61258C16.5543 7.00646 16.238 7.32635 15.8429 7.32635Z" stroke="#FEFEFE" stroke-width="1.79038" stroke-linecap="round" stroke-linejoin="round"/>
</svg>
