<svg width="283" height="283" viewBox="0 0 283 283" fill="none" xmlns="http://www.w3.org/2000/svg">
<path d="M193.75 242.196C178.648 250.915 161.697 255.936 144.283 256.849C126.869 257.761 109.486 254.539 93.5556 247.447C77.6251 240.354 63.5995 229.592 52.6254 216.04C41.6512 202.488 34.0403 186.531 30.4147 169.474L84.4573 157.987C86.2701 166.516 90.0756 174.494 95.5627 181.27C101.05 188.046 108.063 193.427 116.028 196.973C123.993 200.52 132.684 202.131 141.392 201.674C150.099 201.218 158.574 198.707 166.125 194.348L193.75 242.196Z" fill="#EF9C41"/>
<path d="M27.2001 164.15C23.1898 147.179 23.253 129.501 27.3843 112.559C31.5157 95.6173 39.598 79.894 50.9704 66.6746C62.3428 53.4551 76.6824 43.1148 92.8168 36.4992C108.951 29.8835 126.422 27.1803 143.802 28.6106L139.27 83.6744C130.58 82.9593 121.845 84.3109 113.778 87.6187C105.71 90.9265 98.5406 96.0967 92.8544 102.706C87.1682 109.316 83.127 117.178 81.0614 125.649C78.9957 134.119 78.9641 142.959 80.9692 151.444L27.2001 164.15Z" fill="#FF0000"/>
<path d="M149.974 30.9981C173.235 32.8627 195.308 42.0433 213.031 57.224C230.753 72.4048 243.214 92.8064 248.629 115.505C254.044 138.203 252.134 162.033 243.172 183.579C234.211 205.125 218.659 223.281 198.745 235.445L169.945 188.295C179.902 182.213 187.678 173.135 192.159 162.362C196.639 151.589 197.594 139.674 194.887 128.325C192.18 116.976 185.949 106.775 177.088 99.1844C168.227 91.594 157.19 87.0038 145.56 86.0715L149.974 30.9981Z" fill="#023C63"/>
</svg>
