<svg width="24" height="24" viewBox="0 0 24 24" fill="none" xmlns="http://www.w3.org/2000/svg">
<path d="M12 15C13.6569 15 15 13.6569 15 12C15 10.3431 13.6569 9 12 9C10.3431 9 9 10.3431 9 12C9 13.6569 10.3431 15 12 15Z" fill="#2A2A23"/>
<path d="M23.205 11.745C22.3229 9.46324 20.7915 7.48996 18.8001 6.06906C16.8088 4.64817 14.4447 3.84193 12 3.75C9.55544 3.84193 7.19134 4.64817 5.19995 6.06906C3.20856 7.48996 1.67717 9.46324 0.795047 11.745C0.735473 11.9098 0.735473 12.0902 0.795047 12.255C1.67717 14.5368 3.20856 16.51 5.19995 17.9309C7.19134 19.3518 9.55544 20.1581 12 20.25C14.4447 20.1581 16.8088 19.3518 18.8001 17.9309C20.7915 16.51 22.3229 14.5368 23.205 12.255C23.2646 12.0902 23.2646 11.9098 23.205 11.745ZM12 16.875C11.0359 16.875 10.0933 16.5891 9.29164 16.0534C8.48995 15.5177 7.86511 14.7564 7.49614 13.8656C7.12716 12.9748 7.03062 11.9946 7.21872 11.0489C7.40682 10.1033 7.87112 9.23464 8.5529 8.55285C9.23468 7.87107 10.1033 7.40677 11.049 7.21867C11.9946 7.03057 12.9748 7.12711 13.8656 7.49609C14.7564 7.86506 15.5178 8.48991 16.0535 9.2916C16.5891 10.0933 16.875 11.0358 16.875 12C16.8731 13.2923 16.3588 14.5311 15.445 15.445C14.5312 16.3588 13.2924 16.873 12 16.875Z" fill="#2A2A23"/>
</svg>
