<svg width="36" height="36" viewBox="0 0 36 36" fill="none" xmlns="http://www.w3.org/2000/svg">
<path d="M1.05882 36.0001C0.778006 36.0001 0.50869 35.8851 0.310122 35.6805C0.111555 35.476 0 35.1985 0 34.9091C0 34.6198 0.111555 34.3423 0.310122 34.1378C0.50869 33.9332 0.778006 33.8182 1.05882 33.8182H34.9412C35.222 33.8182 35.4913 33.9332 35.6899 34.1378C35.8884 34.3423 36 34.6198 36 34.9091C36 35.1985 35.8884 35.476 35.6899 35.6805C35.4913 35.8851 35.222 36.0001 34.9412 36.0001H1.05882Z" fill="#2A2A33"/>
<path d="M9.52951 33.8182C9.52951 34.1075 9.41796 34.385 9.21939 34.5896C9.02082 34.7942 8.75151 34.9091 8.47069 34.9091C8.18987 34.9091 7.92056 34.7942 7.72199 34.5896C7.52342 34.385 7.41187 34.1075 7.41187 33.8182V6.12655C7.41187 2.77527 9.74551 0 12.706 0H23.2942C26.2547 0 28.5883 2.77527 28.5883 6.12655V33.8182C28.5883 34.1075 28.4768 34.385 28.2782 34.5896C28.0796 34.7942 27.8103 34.9091 27.5295 34.9091C27.2487 34.9091 26.9794 34.7942 26.7808 34.5896C26.5822 34.385 26.4707 34.1075 26.4707 33.8182V6.12655C26.4707 3.91636 25.0116 2.18182 23.2942 2.18182H12.706C10.9886 2.18182 9.52951 3.91636 9.52951 6.12655V33.8182Z" fill="#2A2A33"/>
<path d="M13.7646 5.45459H15.8823C16.1631 5.45459 16.4324 5.56952 16.631 5.77411C16.8296 5.9787 16.9411 6.25617 16.9411 6.5455V8.72732C16.9411 9.01664 16.8296 9.29412 16.631 9.49871C16.4324 9.70329 16.1631 9.81823 15.8823 9.81823H13.7646C13.4838 9.81823 13.2145 9.70329 13.0159 9.49871C12.8174 9.29412 12.7058 9.01664 12.7058 8.72732V6.5455C12.7058 6.25617 12.8174 5.9787 13.0159 5.77411C13.2145 5.56952 13.4838 5.45459 13.7646 5.45459ZM20.1176 5.45459H22.2352C22.516 5.45459 22.7854 5.56952 22.9839 5.77411C23.1825 5.9787 23.294 6.25617 23.294 6.5455V8.72732C23.294 9.01664 23.1825 9.29412 22.9839 9.49871C22.7854 9.70329 22.516 9.81823 22.2352 9.81823H20.1176C19.8368 9.81823 19.5674 9.70329 19.3689 9.49871C19.1703 9.29412 19.0588 9.01664 19.0588 8.72732V6.5455C19.0588 6.25617 19.1703 5.9787 19.3689 5.77411C19.5674 5.56952 19.8368 5.45459 20.1176 5.45459ZM20.1176 12H22.2352C22.516 12 22.7854 12.115 22.9839 12.3196C23.1825 12.5241 23.294 12.8016 23.294 13.091V15.2728C23.294 15.5621 23.1825 15.8396 22.9839 16.0442C22.7854 16.2487 22.516 16.3637 22.2352 16.3637H20.1176C19.8368 16.3637 19.5674 16.2487 19.3689 16.0442C19.1703 15.8396 19.0588 15.5621 19.0588 15.2728V13.091C19.0588 12.8016 19.1703 12.5241 19.3689 12.3196C19.5674 12.115 19.8368 12 20.1176 12ZM20.1176 18.5455H22.2352C22.516 18.5455 22.7854 18.6604 22.9839 18.865C23.1825 19.0696 23.294 19.3471 23.294 19.6364V21.8182C23.294 22.1076 23.1825 22.385 22.9839 22.5896C22.7854 22.7942 22.516 22.9091 22.2352 22.9091H20.1176C19.8368 22.9091 19.5674 22.7942 19.3689 22.5896C19.1703 22.385 19.0588 22.1076 19.0588 21.8182V19.6364C19.0588 19.3471 19.1703 19.0696 19.3689 18.865C19.5674 18.6604 19.8368 18.5455 20.1176 18.5455ZM20.1176 25.091H22.2352C22.516 25.091 22.7854 25.2059 22.9839 25.4105C23.1825 25.6151 23.294 25.8925 23.294 26.1819V28.3637C23.294 28.653 23.1825 28.9305 22.9839 29.1351C22.7854 29.3397 22.516 29.4546 22.2352 29.4546H20.1176C19.8368 29.4546 19.5674 29.3397 19.3689 29.1351C19.1703 28.9305 19.0588 28.653 19.0588 28.3637V26.1819C19.0588 25.8925 19.1703 25.6151 19.3689 25.4105C19.5674 25.2059 19.8368 25.091 20.1176 25.091ZM13.7646 12H15.8823C16.1631 12 16.4324 12.115 16.631 12.3196C16.8296 12.5241 16.9411 12.8016 16.9411 13.091V15.2728C16.9411 15.5621 16.8296 15.8396 16.631 16.0442C16.4324 16.2487 16.1631 16.3637 15.8823 16.3637H13.7646C13.4838 16.3637 13.2145 16.2487 13.0159 16.0442C12.8174 15.8396 12.7058 15.5621 12.7058 15.2728V13.091C12.7058 12.8016 12.8174 12.5241 13.0159 12.3196C13.2145 12.115 13.4838 12 13.7646 12ZM13.7646 25.091H15.8823C16.1631 25.091 16.4324 25.2059 16.631 25.4105C16.8296 25.6151 16.9411 25.8925 16.9411 26.1819V28.3637C16.9411 28.653 16.8296 28.9305 16.631 29.1351C16.4324 29.3397 16.1631 29.4546 15.8823 29.4546H13.7646C13.4838 29.4546 13.2145 29.3397 13.0159 29.1351C12.8174 28.9305 12.7058 28.653 12.7058 28.3637V26.1819C12.7058 25.8925 12.8174 25.6151 13.0159 25.4105C13.2145 25.2059 13.4838 25.091 13.7646 25.091ZM13.7646 18.5455H15.8823C16.1631 18.5455 16.4324 18.6604 16.631 18.865C16.8296 19.0696 16.9411 19.3471 16.9411 19.6364V21.8182C16.9411 22.1076 16.8296 22.385 16.631 22.5896C16.4324 22.7942 16.1631 22.9091 15.8823 22.9091H13.7646C13.4838 22.9091 13.2145 22.7942 13.0159 22.5896C12.8174 22.385 12.7058 22.1076 12.7058 21.8182V19.6364C12.7058 19.3471 12.8174 19.0696 13.0159 18.865C13.2145 18.6604 13.4838 18.5455 13.7646 18.5455Z" fill="#2A2A33"/>
</svg>
