<svg width="19" height="23" viewBox="0 0 19 23" fill="none" xmlns="http://www.w3.org/2000/svg">
<path fill-rule="evenodd" clip-rule="evenodd" d="M9.33345 22.2283C9.33345 22.2283 18.1283 13.8929 18.1283 9.03596C18.1283 6.70342 17.2017 4.46641 15.5524 2.81705C13.903 1.16769 11.666 0.241089 9.33345 0.241089C7.0009 0.241089 4.76389 1.16769 3.11453 2.81705C1.46517 4.46641 0.538574 6.70342 0.538574 9.03596C0.538574 13.8929 9.33345 22.2283 9.33345 22.2283ZM12.1927 11.9227C11.3955 12.7199 10.3143 13.1678 9.18686 13.1678C8.05946 13.1678 6.97824 12.7199 6.18105 11.9227C5.38386 11.1255 4.936 10.0443 4.936 8.9169C4.936 7.7895 5.38386 6.70828 6.18105 5.91109C6.97824 5.1139 8.05946 4.66604 9.18686 4.66604C10.3143 4.66604 11.3955 5.1139 12.1927 5.91109C12.9899 6.70828 13.4377 7.7895 13.4377 8.9169C13.4377 10.0443 12.9899 11.1255 12.1927 11.9227Z" fill="#F6901B"/>
</svg>
