<svg width="32" height="28" viewBox="0 0 32 28" fill="none" xmlns="http://www.w3.org/2000/svg">
<path d="M28.7251 3.47865L28.7254 3.4789C29.4039 4.1571 29.9421 4.96235 30.3094 5.84864C30.6766 6.73492 30.8656 7.68488 30.8656 8.64423C30.8656 9.60358 30.6766 10.5535 30.3094 11.4398C29.9421 12.3261 29.4039 13.1314 28.7254 13.8096L28.7252 13.8097L27.1715 15.3635L16.304 26.2309L5.43653 15.3635L3.88277 13.8097C2.51281 12.4397 1.74317 10.5817 1.74317 8.64423C1.74317 6.70681 2.51281 4.84874 3.88277 3.47877C5.25274 2.10881 7.11081 1.33917 9.04823 1.33917C10.9857 1.33917 12.8437 2.10881 14.2137 3.47877L15.7675 5.03253C16.0638 5.32886 16.5442 5.32886 16.8406 5.03253L18.3943 3.47877L18.3944 3.47865C19.0726 2.80012 19.8779 2.26187 20.7642 1.89463C21.6505 1.5274 22.6004 1.33838 23.5598 1.33838C24.5191 1.33838 25.4691 1.5274 26.3554 1.89463C27.2417 2.26187 28.0469 2.80012 28.7251 3.47865Z" stroke="#180E19" stroke-width="1.51759" stroke-linecap="round" stroke-linejoin="round"/>
</svg>
