<svg width="80" height="80" viewBox="0 0 80 80" fill="none" xmlns="http://www.w3.org/2000/svg">
<path d="M16.6663 63.3334V76.6667H76.6663V19.9H63.333M6.66634 60L23.333 40L33.333 50L46.6663 33.3334L63.333 53.3334M3.33301 3.33337H63.333V63.3334H3.33301V3.33337ZM19.9997 26.6667C20.8837 26.6667 21.7316 26.3155 22.3567 25.6904C22.9818 25.0653 23.333 24.2174 23.333 23.3334C23.333 22.4493 22.9818 21.6015 22.3567 20.9764C21.7316 20.3512 20.8837 20 19.9997 20C19.1156 20 18.2678 20.3512 17.6427 20.9764C17.0175 21.6015 16.6663 22.4493 16.6663 23.3334C16.6663 24.2174 17.0175 25.0653 17.6427 25.6904C18.2678 26.3155 19.1156 26.6667 19.9997 26.6667Z" stroke="black" stroke-width="2"/>
</svg>
