<svg width="82" height="78" viewBox="0 0 82 78" fill="none" xmlns="http://www.w3.org/2000/svg">
<path d="M62.2941 58.0588V66.5294C62.2941 68.776 61.4017 70.9305 59.8131 72.519C58.2246 74.1076 56.0701 75 53.8235 75H11.4706C9.22405 75 7.06952 74.1076 5.48098 72.519C3.89243 70.9305 3 68.776 3 66.5294V36.8824C3 34.6358 3.89243 32.4813 5.48098 30.8927C7.06952 29.3042 9.22405 28.4118 11.4706 28.4118H19.9412M32.6471 11.4706H28.4118C26.1652 11.4706 24.0107 12.363 22.4222 13.9516C20.8336 15.5401 19.9412 17.6946 19.9412 19.9412V49.5882C19.9412 51.8348 20.8336 53.9893 22.4222 55.5778C24.0107 57.1664 26.1652 58.0588 28.4118 58.0588H70.7647C73.0112 58.0588 75.1658 57.1664 76.7543 55.5778C78.3429 53.9893 79.2353 51.8348 79.2353 49.5882V19.9412C79.2353 17.6946 78.3429 15.5401 76.7543 13.9516C75.1658 12.363 73.0112 11.4706 70.7647 11.4706H66.5294M62.2941 28.4118L49.5882 41.1176M49.5882 41.1176L36.8824 28.4118M49.5882 41.1176V3" stroke="#023C63" stroke-width="5" stroke-linecap="round" stroke-linejoin="round"/>
</svg>
